<svg xmlns="http://www.w3.org/2000/svg" width="22.565" height="16.499" viewBox="0 0 22.565 16.499">
  <path id="arrow-right" d="M9.128,24.988H26.713l-6.052,5.483a.956.956,0,0,0,0,1.445,1.213,1.213,0,0,0,1.6,0l7.978-7.228h0a1.06,1.06,0,0,0,.14-.156c.019-.026.032-.054.049-.08a.993.993,0,0,0,.055-.1.847.847,0,0,0,.036-.106c.009-.028.021-.055.028-.085a.929.929,0,0,0,.022-.2h0v0a.937.937,0,0,0-.022-.2c-.007-.031-.019-.059-.029-.089a.886.886,0,0,0-.035-.1,1.027,1.027,0,0,0-.059-.1c-.015-.025-.027-.051-.045-.075a1.034,1.034,0,0,0-.141-.157l-7.977-7.227a1.213,1.213,0,0,0-1.6,0,.956.956,0,0,0,0,1.446l6.052,5.482H9.128a1.027,1.027,0,1,0,0,2.044Z" transform="translate(-8 -15.716)" fill="#e44a52"/>
</svg>
