<svg xmlns="http://www.w3.org/2000/svg" width="345" height="1179.651" viewBox="0 0 345 1179.651">
  <g id="banner" transform="translate(-300 -1150)">
    <g id="Subtraction_1" data-name="Subtraction 1" transform="translate(300 1150)" fill="#fafafa">
      <path d="M 119.0003051757813 1175.152221679688 L 24.00030899047852 1175.151123046875 C 21.2984619140625 1175.151123046875 18.67954063415527 1174.622802734375 16.21630859375 1173.5810546875 C 13.83553981781006 1172.574340820313 11.6961555480957 1171.131713867188 9.857693672180176 1169.29345703125 C 8.019693374633789 1167.455444335938 6.577231884002686 1165.316162109375 5.570155143737793 1162.935302734375 C 4.528308868408203 1160.472045898438 4.000001430511475 1157.853393554688 4.000001430511475 1155.15185546875 L 4.000001430511475 23.99940299987793 C 4.000001430511475 21.29801750183105 4.528308868408203 18.67924880981445 5.570155143737793 16.21586418151855 C 6.577385902404785 13.83478736877441 8.020001411437988 11.695556640625 9.857847213745117 9.857709884643555 C 11.6958475112915 8.019864082336426 13.83523178100586 6.577402591705322 16.21630859375 5.57017183303833 C 18.6796932220459 4.52832555770874 21.29861640930176 4.000018119812012 24.00030899047852 4.000018119812012 L 321.0003051757813 4.000018119812012 C 323.7016906738281 4.000018119812012 326.3203125 4.52832555770874 328.78369140625 5.57017183303833 C 331.1647644042969 6.577248573303223 333.3040161132813 8.019864082336426 335.1421508789063 9.857709884643555 C 336.9800109863281 11.69571018218994 338.422607421875 13.83494091033936 339.4295349121094 16.21586418151855 C 340.4713745117188 18.67924880981445 340.9996948242188 21.29801750183105 340.9996948242188 23.99940299987793 L 340.9996948242188 1155.15185546875 C 340.9996948242188 1157.853393554688 340.4713745117188 1160.472045898438 339.4295349121094 1162.93505859375 C 338.4224548339844 1165.316528320313 336.9800109863281 1167.455688476563 335.1421508789063 1169.29345703125 C 333.3041687011719 1171.131225585938 331.1649169921875 1172.573852539063 328.7835388183594 1173.5810546875 C 326.3206176757813 1174.622924804688 323.7019958496094 1175.151123046875 321.0003051757813 1175.151123046875 L 226.0003051757813 1175.151123046875 L 226.0003051757813 982.6911010742188 C 226.0003051757813 977.965576171875 221.9627685546875 974.1209106445313 216.9998474121094 974.1209106445313 L 127.9998474121094 974.1209106445313 C 123.0375366210938 974.1209106445313 119.0003051757813 977.965576171875 119.0003051757813 982.6911010742188 L 119.0003051757813 1175.152221679688 Z" stroke="none"/>
      <path d="M 115.0003051757813 1171.152221679688 L 115.0003051757813 982.6911010742188 C 115.0003051757813 975.7598876953125 120.8318481445313 970.1209106445313 127.9998474121094 970.1209106445313 L 216.9998474121094 970.1209106445313 C 224.1683044433594 970.1209106445313 230.0003051757813 975.7598876953125 230.0003051757813 982.6911010742188 L 230.0003051757813 1171.151123046875 L 321.0003051757813 1171.151123046875 C 323.1636962890625 1171.151123046875 325.2581481933594 1170.729248046875 327.2253723144531 1169.897094726563 C 329.1298522949219 1169.091552734375 330.8418579101563 1167.936767578125 332.3138427734375 1166.46484375 C 333.7855529785156 1164.993286132813 334.9400024414063 1163.281616210938 335.7455444335938 1161.376831054688 C 336.5776977539063 1159.409423828125 336.9996948242188 1157.315063476563 336.9996948242188 1155.15185546875 L 336.9996948242188 23.99940299987793 C 336.9996948242188 21.83632659912109 336.5776977539063 19.7417106628418 335.7453918457031 17.77386474609375 C 334.9401550292969 15.86986446380615 333.785400390625 14.15801811218262 332.3138427734375 12.6863260269165 C 330.8417053222656 11.21432590484619 329.1298522949219 10.05971050262451 327.2253723144531 9.254172325134277 C 325.2578430175781 8.422018051147461 323.1633911132813 8.000018119812012 321.0003051757813 8.000018119812012 L 24.00030899047852 8.000018119812012 C 21.83692359924316 8.000018119812012 19.74215507507324 8.422018051147461 17.77461624145508 9.254172325134277 C 15.87015533447266 10.05971050262451 14.15800094604492 11.21447944641113 12.68630886077881 12.68617153167725 C 11.21446323394775 14.15786457061768 10.05969333648682 15.86986446380615 9.254155158996582 17.77401733398438 C 8.422000885009766 19.7417106628418 8.000000953674316 21.83632659912109 8.000000953674316 23.99940299987793 L 8.000000953674316 1155.15185546875 C 8.000000953674316 1157.315063476563 8.422000885009766 1159.409423828125 9.254308700561523 1161.377075195313 C 10.05953979492188 1163.28125 11.2143087387085 1164.993041992188 12.68600082397461 1166.46484375 C 14.15846252441406 1167.937133789063 15.8703088760376 1169.091674804688 17.77446365356445 1169.897094726563 C 19.74200057983398 1170.729125976563 21.83661651611328 1171.151123046875 24.00046348571777 1171.151123046875 L 115.0003051757813 1171.152221679688 M 123.0003051757813 1179.15234375 L 122.9992294311523 1179.15234375 L 24.00030899047852 1179.151123046875 C 20.76046371459961 1179.151123046875 17.61723136901855 1178.5166015625 14.65815544128418 1177.26513671875 C 11.80077075958252 1176.056762695313 9.234001159667969 1174.326293945313 7.029386043548584 1172.121826171875 C 4.825386047363281 1169.917846679688 3.094924449920654 1167.351440429688 1.886155128479004 1164.493408203125 C 0.6346166133880615 1161.53466796875 1.258263182535302e-06 1158.391723632813 1.258263182535302e-06 1155.15185546875 L 1.258263182535302e-06 23.99940299987793 C 1.258263182535302e-06 20.75955581665039 0.6346166133880615 17.61678695678711 1.886155128479004 14.65771007537842 C 3.094924449920654 11.80001831054688 4.825232028961182 9.233402252197266 7.029386043548584 7.029248714447021 C 9.233539581298828 4.825402736663818 11.80030918121338 3.094941139221191 14.65815544128418 1.886171817779541 C 17.61723136901855 0.6346334218978882 20.76046371459961 1.802884617063683e-05 24.00030899047852 1.802884617063683e-05 L 321.0003051757813 1.802884617063683e-05 C 324.2401428222656 1.802884617063683e-05 327.3829345703125 0.6346334218978882 330.3418579101563 1.886171817779541 C 333.1998596191406 3.094941139221191 335.7664489746094 4.825402736663818 337.970458984375 7.029248714447021 C 340.1744689941406 9.233402252197266 341.9049377441406 11.80001831054688 343.113525390625 14.65771007537842 C 344.3650817871094 17.61678695678711 344.9996948242188 20.75955581665039 344.9996948242188 23.99940299987793 L 344.9996948242188 1155.15185546875 C 344.9996948242188 1158.391723632813 344.3650817871094 1161.53466796875 343.113525390625 1164.493408203125 C 341.90478515625 1167.3515625 340.17431640625 1169.918212890625 337.970458984375 1172.121826171875 C 335.7666015625 1174.32568359375 333.2000122070313 1176.05615234375 330.3418579101563 1177.26513671875 C 327.3829345703125 1178.5166015625 324.239990234375 1179.151123046875 321.0003051757813 1179.151123046875 L 222.0003051757813 1179.151123046875 L 222.0003051757813 982.6911010742188 C 222.0003051757813 980.1710815429688 219.757080078125 978.1209106445313 216.9998474121094 978.1209106445313 L 127.9998474121094 978.1209106445313 C 125.2430801391602 978.1209106445313 123.0003051757813 980.1710815429688 123.0003051757813 982.6911010742188 L 123.0003051757813 1179.1513671875 L 123.0003051757813 1179.15234375 Z" stroke="none" fill="#093550"/>
    </g>
    <line id="Line_16" data-name="Line 16" y2="206" transform="translate(472.5 2123.652)" fill="none" stroke="#093550" stroke-width="8"/>
    <line id="Line_18" data-name="Line 18" x1="146" transform="translate(399.5 2124.152)" fill="none" stroke="#093550" stroke-width="8"/>
    <line id="Line_17" data-name="Line 17" x1="146" transform="translate(399.5 2104.152)" fill="none" stroke="#093550" stroke-width="8"/>
  </g>
</svg>
