<svg xmlns="http://www.w3.org/2000/svg" xmlns:xlink="http://www.w3.org/1999/xlink" width="55" height="55" viewBox="0 0 55 55">
  <defs>
    <clipPath id="clip-path">
      <rect id="Rectangle_5" data-name="Rectangle 5" width="55" height="55" transform="translate(742 2099)" fill="#e44a52" stroke="#707070" stroke-width="1"/>
    </clipPath>
  </defs>
  <g id="Mask_Group_1" data-name="Mask Group 1" transform="translate(-742 -2099)" clip-path="url(#clip-path)">
    <g id="briefCase" transform="translate(741.989 2099.064)">
      <path id="Path_6" data-name="Path 6" d="M44.938,26.845V29.1a.93.93,0,0,1-.923.923H40.45a.93.93,0,0,1-.923-.923v-.859L27.489,31.355l-11.64-3.007V29.1a.93.93,0,0,1-.923.923H11.361a.93.93,0,0,1-.923-.923V26.952L1.75,24.644V42.823A4.984,4.984,0,0,0,6.872,47.7H48.1a4.963,4.963,0,0,0,5.09-4.875V24.644Z" fill="#e44a52"/>
      <path id="Path_7" data-name="Path 7" d="M48.106,50.254H6.883c-2.931,0-5.111-1.181-5.111-3.8v2.76c0,2.62,2.191,4.585,5.122,4.585H48.117c2.931,0,5.09-1.976,5.09-4.6v-2.76C53.207,49.062,51.027,50.254,48.106,50.254Z" fill="#e44a52"/>
      <path id="Path_8" data-name="Path 8" d="M49.33,11.651H5.648c-3.1,0-5.637,2.266-5.637,5.047v5.047L10.459,24.45V23.173a.93.93,0,0,1,.923-.923h3.565a.93.93,0,0,1,.923.923v2.674l11.64,3.007,12.048-3.114V23.173a.93.93,0,0,1,.923-.923h3.565a.93.93,0,0,1,.923.923v1.17l10.04-2.6V16.7C54.979,13.916,52.434,11.651,49.33,11.651Z" fill="#e44a52"/>
      <path id="Path_9" data-name="Path 9" d="M16.826,9.879V7.667a3.65,3.65,0,0,1,3.64-3.64H34.5a3.65,3.65,0,0,1,3.64,3.64V9.879h3.726V6.3A5.147,5.147,0,0,0,36.7,1.074H18.308A5.165,5.165,0,0,0,13.1,6.282V9.857Z" fill="#e44a52"/>
    </g>
  </g>
</svg>
